<?xml version="1.0" standalone="no"?>
<!DOCTYPE svg PUBLIC "-//W3C//DTD SVG 20010904//EN"
 "http://www.w3.org/TR/2001/REC-SVG-20010904/DTD/svg10.dtd">
<svg version="1.0" xmlns="http://www.w3.org/2000/svg"
 width="30.000000pt" height="30.000000pt" viewBox="0 0 51.000000 51.000000"
 preserveAspectRatio="xMidYMid meet">

<g transform="translate(0.000000,51.000000) scale(0.100000,-0.100000)"
fill="#000000" stroke="none">
<path d="M132 468 c-8 -8 -12 -64 -12 -187 l1 -176 69 -32 70 -32 0 183 0 184
-30 12 c-54 22 -43 30 45 30 l86 0 -3 -157 -3 -158 -27 -3 c-16 -2 -28 -8 -28
-13 0 -13 64 -11 78 3 17 17 17 329 0 346 -17 17 -229 17 -246 0z m118 -234
c0 -31 -23 -28 -28 4 -2 15 2 22 12 22 11 0 16 -9 16 -26z"/>
</g>
</svg>
