<?xml version="1.0" encoding="UTF-8"?>
<svg version="1.1" viewBox="0 0 1378.8 612.82" xmlns="http://www.w3.org/2000/svg">
   <path d="m162.18 611.81c-0.66277-0.66277-1.205-2.1838-1.205-3.38s-0.28125-3.5812-0.625-5.3c-0.70601-3.53-1.6894-3.6949-14.708-2.4656-7.2696 0.68648-6.7248 0.25479-9.2643 7.3406-0.86139 2.4035-2.7074-1.6515-2.0124-4.4206 0.43983-1.7524 6.9e-4 -2.5357-1.9098-3.4061-3.1266-1.4246-3.1905-3.8929-0.13673-5.2842 1.7191-0.78329 2.2271-1.681 1.9048-3.3665-0.24166-1.2641 0.11268-3.3299 0.78742-4.5907 1.1816-2.2079 1.2772-2.2234 2.5952-0.42093 0.7526 1.0292 1.3684 3.1353 1.3684 4.6802 0 1.8301 0.52268 2.8089 1.5 2.8089 1.1057 0 1.5-1.1548 1.5-4.393 0-2.9824-0.48165-4.5778-1.5-4.9686-0.825-0.31658-1.5-1.2788-1.5-2.1384s0.675-1.8218 1.5-2.1384c2.6967-1.0348 1.5784-3.0216-2.366-4.2033-2.693-0.80686-15.512-1.0972-42.25-0.95705-21.111 0.11069-34.896 0.35462-30.634 0.54207l7.75 0.34082-0.0174 3.7079c-0.0287 6.1374-2.7694 17.169-5.359 21.572-3.8536 6.5508-6.9174 8.8685-12.341 9.3358-6.1704 0.53157-10.524-2.0853-13.434-8.0742l-2.1348-4.3941 5.4892-22.126 4.1486-0.37783c2.2817-0.20781-5.2483-0.45645-16.733-0.55254-24.572-0.20558-25.709-0.57406-30.219-9.7913-2.5758-5.2648-2.6696-5.9943-2.0826-16.198 1.0128-17.606 5.0356-33.743 9.2931-37.276 1.1285-0.93654 1.3904-6.5942 1.3904-30.031 0-18.585 0.35642-28.878 1-28.878 0.62857 0 1 6.5 1 17.5 0 9.625 0.4 17.5 0.88889 17.5s0.82639 0.5625 0.75 1.25c-0.32238 2.9014 4.7703 16.75 6.1596 16.75 1.0966 0 1.177 0.32453 0.33262 1.342-1.3211 1.5918-0.50464 2.658 2.0356 2.658 2.1133 0 2.3568-1.0765 0.63333-2.8-0.93333-0.93333-0.82411-1.2 0.49153-1.2 0.93033 0 2.2536 0.9 2.9405 2 0.96851 1.5508 2.332 2 6.0713 2 4.4269 0 4.7967-0.18447 4.5095-2.25-0.2769-1.9914 0.17564-2.2853 3.9371-2.5575 2.8937-0.20936 4.25-0.76784 4.25-1.75 0-0.79337 0.9-1.4425 2-1.4425 1.1111 0 2 0.66667 2 1.5 0 0.825 0.45 1.5 1 1.5s1-0.675 1-1.5c0-0.83333 0.88889-1.5 2-1.5 1.1 0 2 0.62686 2 1.393 0 0.76616 0.70352 1.663 1.5634 1.9929s1.2833 1.0531 0.94098 1.607c-0.37698 0.60997 0.87952 0.99853 3.1866 0.98542 3.2885-0.0187 4.014-0.45575 5.309-3.1983 0.825-1.7471 2.0625-3.3499 2.75-3.5617 1.4886-0.45856 1.7126 3.3777 0.25 4.2816-2.4871 1.5371-0.5074 2.5 5.1398 2.5 4.6625 0 6.467-0.42105 7.5-1.75 1.2863-1.6548 1.4461-1.6412 2.9386 0.25 1.51 1.9134 1.5641 1.8484 1.25-1.5l-0.32834-3.5h6c5.9567 0 5.9977 0.0199 5.6784 2.7499-0.39205 3.3528 1.7968 5.7501 5.2501 5.7501h2.5714v-12.865c0-11.501 0.21974-13.144 2.0726-15.5 1.1399-1.4492 2.6024-2.628 3.25-2.6196 0.74298 0.01 0.80844 0.2864 0.17742 0.75-1.4802 1.0875-1.7788 3.4445-2.215 17.485l-0.39614 12.75h15.099 15.099l-0.29328-3.75c-0.29085-3.7189-0.26219-3.75 3.4574-3.75 2.0629 0 3.7504-0.3375 3.75-0.75s-4.2757-0.75-9.5007-0.75c-5.6667 0-9.5-0.40351-9.5-1 0-0.5996 3.9803-1 9.941-1 8.9828 0 13.149-0.99147 9.8153-2.3356-0.69093-0.27856 0.68283-0.54199 3.0528-0.58541 2.37-0.0434 4.0625 0.31989 3.7612 0.80736-0.66239 1.0718 2.761 2.0814 7.1207 2.1 3.3225 0.0142 5.2459-1.4428 3.0652-2.322-0.69093-0.27856 0.73127-0.54199 3.1604-0.58541 2.4292-0.0434 4.0903 0.24741 3.6914 0.64628-0.39888 0.39888 0.76362 1.2265 2.5833 1.8392 4.2637 1.4356 4.2289 3.5699-0.0764 4.6856-3.8725 1.0035-6.115 2.9026-6.115 5.1786 0 1.3723 2.3591 1.5714 18.617 1.5714 18.124 0 18.603-0.0529 18.094-2-0.47454-1.8147-0.0307-2 4.7898-2 4.8204 0 5.2643 0.18534 4.7898 2-0.51125 1.955-0.0307 2 21.366 2h21.889l1.1165-4.75c0.61409-2.6125 0.95533-4.9236 0.7583-5.1357-0.19703-0.21215-17.022-0.61443-37.389-0.89396l-37.031-0.50824v-3.356-3.356l23.75-3e-3c13.062-2e-3 30.826-0.2968 39.474-0.65548l15.724-0.65214 1.093-3.3118c1.1652-3.5309 6.138-8.3776 8.5952-8.3776 0.81526 0 1.2042 0.45 0.86426 1-0.36623 0.59257 0.78213 1 2.8185 1 1.8901 0 3.9746 0.64825 4.6321 1.4406 1.6734 2.0163 4.0493 0.81489 4.0493-2.0476 0-2.0641 0.47678-2.393 3.4686-2.393 2.6724 0 3.3365-0.34434 2.893-1.5-0.36449-0.94984 0.0138-1.5 1.0314-1.5 0.88385 0 1.607-0.45 1.607-1 0-0.59649-3.8333-1-9.5-1s-9.5-0.40351-9.5-1c0-0.5996 3.9803-1 9.941-1 8.9828 0 13.149-0.99147 9.8152-2.3356-0.69093-0.27856 0.73127-0.54199 3.1604-0.58541 2.4292-0.0434 4.0903 0.24741 3.6914 0.64628-0.39888 0.39888 0.76362 1.2265 2.5833 1.8392 4.4014 1.482 4.1999 3.6497-0.44143 4.7474-5.1185 1.2105-4.7235 2.6882 0.71862 2.6882 3.5612 0 4.3517 0.30458 3.893 1.5-0.68813 1.7932-1.9401 1.7932 14.638 0 7.425-0.80313 14.062-1.4692 14.75-1.4801 0.94533-0.015 1.25 3.6362 1.25 14.98v15h-4.8472c-4.0385 0-5.0282-0.37537-5.9323-2.25-1.0235-2.1222-1.089-2.0655-1.1528 1l-0.0677 3.25h15c9.3333 0 15-0.37778 15-1 0-0.55 1.0908-1 2.4241-1h2.4241l0.0151-31.139c0.0153-31.684 0.47813-35.788 3.5644-31.611 0.71111 0.9625 1.5808 1.75 1.9327 1.75 0.35183 0 0.63972-7.1003 0.63972-15.778v-15.778l4.5585-10.472c2.5072-5.7594 5.374-12.272 6.3707-14.472 10.586-23.366 28.172-65.125 29.189-69.308 1.0398-4.279 1.0453-5.7002 0.0285-7.3284-0.85909-1.3756-0.94025-2.4069-0.25447-3.2332 0.55384-0.66733 1.1422-4.3446 1.3074-8.1716 0.23251-5.385 0.6396-6.9583 1.8004-6.9583 1.2308 0 1.5897 2.3333 2 13 0.275 7.15 0.79082 13.45 1.1463 14s1.3873 18.325 2.2931 39.5 2.0597 41.927 2.5643 46.116l0.91742 7.6158-8.5459 16.215c-4.7003 8.9185-8.2951 16.466-7.9886 16.773 0.30655 0.30655 9.6379 1.1658 20.736 1.9096 11.098 0.74371 20.674 1.4477 21.278 1.5645 0.60442 0.11678 2.5747-0.5725 4.3783-1.5317 5.7585-3.0625 7.352 0.14763 1.7221 3.4693-1.9242 1.1353-3.2508 2.465-2.9481 2.9548 0.30274 0.48986-0.0899 0.64493-0.87255 0.3446-0.78265-0.30034-2.14 0.17089-3.0162 1.0472-0.87627 0.87628-1.9468 1.6085-2.3789 1.6273-2.0146 0.0873-12.092 6.3988-11.569 7.2456 0.32564 0.5269 0.15147 0.68569-0.38706 0.35287-0.53852-0.33283-7.9206 3.3593-16.405 8.2048l-15.425 8.8099-0.30226 5.1407c-0.2714 4.6159-0.0927 5.1407 1.75 5.1407 1.8592 0 2.0523 0.61149 2.0523 6.5v6.5h5.5c4.2222 0 5.5-0.34848 5.5-1.5 0-1.2281 1.7222-1.5 9.5-1.5s9.5 0.27193 9.5 1.5c0 2.119 2.6959 1.8612 5.2304-0.5 2.3522-2.1914 5.7582-2.6114 7.4508-0.91888 0.77483 0.77483 1.1996 0.0666 1.4992-2.5l0.4181-3.5811h-19.799-19.799v-3.5-3.5l23.75-3e-3c13.062-2e-3 30.826-0.2968 39.474-0.65548l15.724-0.65214 1.093-3.3118c1.1652-3.5309 6.138-8.3776 8.5952-8.3776 0.81526 0 1.2042 0.45 0.86426 1-0.36623 0.59257 0.78213 1 2.8185 1 1.8901 0 3.9746 0.64825 4.6321 1.4406 1.6734 2.0163 4.0493 0.81489 4.0493-2.0476 0-2.0641 0.47678-2.393 3.4686-2.393 2.6724 0 3.3365-0.34434 2.893-1.5-0.36449-0.94984 0.0138-1.5 1.0314-1.5 0.88385 0 1.607-0.45 1.607-1 0-0.59649-3.8333-1-9.5-1s-9.5-0.40351-9.5-1c0-0.5996 3.9803-1 9.941-1 8.9828 0 13.149-0.99147 9.8152-2.3356-0.69093-0.27856 0.73127-0.54199 3.1604-0.58541 2.4292-0.0434 4.0903 0.24741 3.6914 0.64628-0.39888 0.39888 0.76362 1.2265 2.5833 1.8392 4.4014 1.482 4.1999 3.6497-0.44143 4.7474-5.1185 1.2105-4.7235 2.6882 0.71862 2.6882 3.7466 0 4.366 0.26731 3.8338 1.6544-0.54569 1.422-0.0848 1.5696 3.2814 1.0505 2.1539-0.33213 7.866-0.91449 12.694-1.2941 4.8275-0.37963 8.9669-0.99693 9.1986-1.3718 0.49593-0.80244-35.212-21.372-37.101-21.372-0.70799 0-1.1101-0.28658-0.89367-0.63683 0.37854-0.6125-11.684-7.6913-12.267-7.1993-0.15715 0.13247-1.0027-0.4761-1.8789-1.3524-0.87628-0.87627-2.2336-1.3475-3.0162-1.0472-0.78265 0.30033-1.1753 0.14526-0.87255-0.3446 0.30275-0.48985-1.0239-1.8195-2.9481-2.9548-5.6307-3.3222-4.0356-6.5332 1.7221-3.4669 1.8036 0.96055 3.5707 1.6693 3.9269 1.575 0.35612-0.0943 18.31-1.3171 39.898-2.7174 34.204-2.2186 39.425-2.7694 40.603-4.2842 1.2716-1.6353 1.4302-1.6373 2.6776-0.0351 0.84311 1.0829 1.1816 3.5143 0.92947 6.6768-0.3845 4.8231-0.31113 4.9834 2.424 5.2969 2.3374 0.26786 2.8723 0.85448 3.1228 3.4246 0.25531 2.6195 0.65319 3.0342 2.5608 2.6696 1.2934-0.24725 2.819 0.24361 3.5702 1.1487 2.1891 2.6377 3.0667 1.8022 3.0667-2.9196 0-3.3627 0.38475-4.5 1.5224-4.5 1.3362 0 1.5138-4.4011 1.4527-36-0.0528-27.322-0.35955-36.008-1.2724-36.032-0.66151-0.0174-0.0495-1.0484 1.3601-2.291 3.0787-2.7143 4.2686-5.4002 2.6337-5.9452-0.66354-0.22118-0.085-1.025 1.3062-1.8146 1.8524-1.0515 7.4688-1.5019 21.747-1.744 10.588-0.17956 19.25-0.69391 19.25-1.143 0-1.1799-2.9935-2.1526-4.2448-1.3793-0.59199 0.36587-0.77448 0.18888-0.41125-0.39885 0.35917-0.58114-0.92131-1.9855-2.8455-3.1208-1.9242-1.1353-3.4985-2.5028-3.4985-3.0389 0-2.0615 2.2001-2.1722 5.4194-0.27282 2.7022 1.5943 3.6184 1.7362 4.7171 0.73042 0.74996-0.68651 30.164-16.667 65.364-35.513s64.322-34.558 64.715-34.916c0.39327-0.35821 0.22656-4.9514-0.37046-10.207l-1.0855-9.5559-8.3795-5.2594c-4.6088-2.8927-8.3795-5.5494-8.3795-5.9039 0-1.4661 18.185-94.57 18.857-96.545 0.79466-2.3351 0.79236-2.4638-0.86766-48.529-0.80356-22.299-0.82099-31.689-0.0602-32.45 0.72199-0.722 1.0706-13.053 1.0706-37.871 0-23.867 0.35145-36.8 1-36.8 0.65165 0 1 15.461 1 44.383 0 43.542 0.0379 44.393 2 44.906 1.9438 0.50832 2 1.364 2 30.46 0 26.687 0.20364 30.524 1.8756 35.344 2.0087 5.7904 28.913 71.734 29.949 73.407 0.3407 0.55 0.68833 1.45 0.7725 2 0.0842 0.55 2.239 5.95 4.7886 12l4.6356 11-7.367 119.43 5.3185 29.787c2.9252 16.383 5.49 29.986 5.6996 30.23 0.20962 0.24381 0.34401-12.919 0.29865-29.25-0.0619-22.282-0.38052-29.701-1.2766-29.725-0.65679-0.0174-0.0409-1.0484 1.3687-2.291 3.0787-2.7143 4.2686-5.4002 2.6337-5.9452-0.66354-0.22118-0.085-1.025 1.3062-1.8146 1.8999-1.0784 6.8038-1.4176 20.497-1.4176s18.597 0.33914 20.497 1.4176c1.3911 0.78965 1.9697 1.5934 1.3062 1.8146-1.6349 0.54498-0.44506 3.231 2.6337 5.9452 1.4096 1.2427 2.0278 2.2736 1.3738 2.291-0.8856 0.0235-1.2117 6.771-1.2779 26.44l-0.0889 26.409 4.278-0.54617c5.1012-0.6513 5.386-0.83337 3.9708-2.5386-0.60066-0.72375-1.2364-4.1096-1.4128-7.5242l-0.32066-6.2082h3.7345 3.7345l-0.0774-15.75c-0.0564-11.473-0.46097-16.497-1.4899-18.5l-1.4125-2.75h27.051 27.051l-1.438 2.7808c-1.14 2.2045-1.4044 7.386-1.2757 25l0.16235 22.219-7.5 3.6e-4v6.9546c0 5.9971 0.32862 7.2832 2.3871 9.3416 1.9681 1.9681 2.3028 3.1171 1.9068 6.5455l-0.48034 4.1584h9.5932c5.7288 0 9.5932 0.40283 9.5932 1 0 0.59649-3.8333 1-9.5 1s-9.5 0.40351-9.5 1c0 0.55 0.675 1 1.5 1s1.5 0.45 1.5 1 0.675 1 1.5 1c1.2727 0 1.5 2.5 1.5 16.5s0.22727 16.5 1.5 16.5c0.93333 0 1.5-0.94444 1.5-2.5 0-2.1905 0.43333-2.5 3.5-2.5h3.5v-14c0-10.544 0.30858-13.995 1.25-13.98 0.6875 0.0109 7.325 0.67699 14.75 1.4801 16.578 1.7932 15.326 1.7932 14.638 0-0.45872-1.1954 0.33176-1.5 3.893-1.5 5.4421 0 5.8371-1.4777 0.71862-2.6882-4.6413-1.0976-4.8429-3.2654-0.44143-4.7474 1.8197-0.61269 2.9822-1.4403 2.5833-1.8392-0.39888-0.39887 1.2623-0.6897 3.6915-0.64628 2.4291 0.0434 3.8513 0.30685 3.1604 0.58541-3.3341 1.3442 0.8324 2.3356 9.8152 2.3356 5.9607 0 9.941 0.4004 9.941 1 0 0.59649-3.8333 1-9.5 1s-9.5 0.40351-9.5 1c0 0.55 0.7231 1 1.607 1 1.0176 0 1.3959 0.55016 1.0314 1.5-0.4435 1.1557 0.2206 1.5 2.893 1.5 2.9918 0 3.4686 0.32893 3.4686 2.393 0 2.8624 2.376 4.0638 4.0493 2.0476 0.6576-0.79231 2.742-1.4406 4.6322-1.4406 2.0364 0 3.1847-0.40743 2.8185-1-0.3399-0.55 0.049-1 0.8643-1 2.4572 0 7.43 4.8467 8.5952 8.3772l1.093 3.3118 15.724 0.65214c8.6481 0.35868 26.411 0.65365 39.474 0.65548l23.75 3e-3v3.356 3.356l-37.031 0.50824c-20.367 0.27953-37.192 0.68181-37.389 0.89396-0.8564 0.92205 1.9975 9.8857 3.1475 9.8857 0.6999 0 1.2726-0.45 1.2726-1s2.475-1 5.5-1c5.2 0 5.5-0.13636 5.5-2.5 0-2.4444 0.1667-2.5 7.5-2.5 6 0 7.5 0.3 7.5 1.5 0 0.83333 0.8889 1.5 2 1.5 1.3333 0 2-0.66667 2-2s0.6667-2 2-2c1.1111 0 2 0.66667 2 1.5 0 0.825 0.45 1.5 1 1.5s1-0.675 1-1.5c0-1.669 3.6376-2.0872 4.1734-0.47975 0.2311 0.69329 2.0723 0.69175 5.7452-5e-3 2.9728-0.56379 5.5905-0.83972 5.817-0.61318 0.2265 0.22653-0.3079 1.8037-1.1875 3.5048-1.584 3.063-1.575 3.0929 0.9262 3.0929 2.0274 0 2.5257-0.49322 2.5257-2.5 0-2.4444 0.1667-2.5 7.5-2.5s7.5 0.0556 7.5 2.5c0 1.375 0.45 2.5 1 2.5s1-1.125 1-2.5c0-2.4444 0.1667-2.5 7.5-2.5 7.3889 0 7.5 0.0381 7.5 2.5714 0 2.2857 0.1667 2.4048 1.5 1.0714 0.825-0.825 1.5-2.4322 1.5-3.5714 0-2.031 0.4195-2.0714 21.5-2.0714s21.5 0.0404 21.5 2.0714c0 3.413 2.4381 4.9286 7.9286 4.9286 2.7893 0 5.0714-0.41936 5.0714-0.93191 0-0.51254 1.4132-1.9382 3.1405-3.1681 2.8921-2.0594 3.2369-2.1043 4.3602-0.56809 0.6709 0.91746 1.7327 1.6681 2.3595 1.6681 1.4822 0 1.4657-2.2741-0.027-3.7672-1.8326-1.8326 2.2914-2.8906 9.4172-2.416 2.3482 0.15642 2.75 0.62154 2.75 3.1832 0 1.65 0.45 3 1 3s1-1.35 1-3c0-2.3333 0.4444-3 2-3 1.5822 0 2 0.66667 2 3.1911 0 3.0326 0.074 3.0947 1.5 1.25 1.4205-1.8382 1.5721-1.8484 2.8602-0.19113 0.7482 0.9625 1.8732 1.75 2.5 1.75 1.4822 0 1.4657-2.2741-0.027-3.7672-0.8896-0.88962-0.7113-1.3453 0.75-1.9159 2.4439-0.9544 8.3613-0.9659 10.78-0.0209 1.5643 0.6112 1.6547 0.97833 0.5643 2.2922-1.0715 1.2911-1.0475 1.7231 0.1374 2.4728 0.7896 0.49966 1.7429 0.91537 2.1183 0.92379 1.288 0.0289 1.9827-4.0805 0.9087-5.3747-1.6259-1.959-0.2768-2.61 5.4087-2.61s7.0346 0.65098 5.4087 2.61c-1.4494 1.7464-0.129 6.0102 1.3906 4.4907 0.6046-0.60522 2.6749-1.1005 4.5999-1.1005 2.7222 0 3.2333 0.26667 2.3 1.2-0.66 0.66-1.2 1.56-1.2 2s8.0625 0.8 17.917 0.8c13.442 0 18.022-0.31217 18.337-1.25 0.328-0.97451 0.7872-0.94752 2.0834 0.12244 1.3729 1.1333 1.9373 1.1445 3.2388 0.0643 1.2984-1.0776 1.7189-1.0774 2.3855 1e-3 1.1099 1.7959 13.833 1.0124 15.03-0.92554 0.7073-1.1443 1.1283-1.1574 2.4316-0.0758 1.2983 1.0775 1.8541 1.0775 3.1524 0 1.2736-1.057 1.7276-1.0632 2.3646-0.0325 0.5898 0.95433 1.4408 0.62327 3.3783-1.3143 1.4245-1.4245 3.3552-2.5899 4.2904-2.5899 1.5841 0 1.5872 0.12521 0.045 1.8287-2.3898 2.6407-2.0812 3.1713 1.845 3.1713s4.2348-0.53053 1.845-3.1713c-1.5417-1.7035-1.5386-1.8287 0.045-1.8287 0.9352 0 2.8254 1.125 4.2004 2.5 3.0224 3.0224 4.5257 3.1441 6.177 0.5 0.687-1.1 2.0102-2 2.9406-2 1.3156 0 1.4248 0.26667 0.4915 1.2-1.8641 1.8641-1.4296 2.8 1.3 2.8 2.6223 0 3.3228-1.3734 1.329-2.6057-0.7898-0.48815-0.5287-0.9613 0.8023-1.4537 1.2699-0.46975 3.1921-3.7085 5.3922-9.0853l3.4189-8.3554 0.3487-21.75c0.2003-12.493 0.7446-21.75 1.2788-21.75 0.5544 0 0.9301 13.11 0.9301 32.451 0 24.965-0.331 33.722-1.4349 37.96-2.3909 9.1793-3.9804 32.272-2.6589 38.631 1.5792 7.5991 5.0293 14.606 10.045 20.401 6.6093 7.6364 8.8334 11.516 10.628 18.54 5.0934 19.936-6.0578 34.77-32.079 42.672-5.7711 1.7525-28.432 1.8322-594.04 2.0884-457.69 0.20729-588.31-7.9e-4 -589.25-0.93869zm411.62-145.81-0.33973-11h2.6374c2.5073 0 2.6903-0.35602 3.7085-7.2164 0.58908-3.969 0.93882-7.3487 0.77718-7.5103-0.38897-0.38897-71.924 3.7103-72.36 4.1466-0.50769 0.5077 11.061 6.8976 12.503 6.9061 0.6875 4e-3 1.0347 0.22264 0.77157 0.48577-0.26313 0.26314 9.0744 6.0044 20.75 12.758 19.683 11.386 21.616 12.285 26.56 12.355l5.3315 0.0749-0.33972-11zm184.18-4.5c0-2.1111 0.46667-2.5 3-2.5 2.3333 0 3 0.44444 3 2 0 2.298 0.37161 2.4067 3.1487 0.92042 1.9363-1.0363 1.9462-1.1581 0.24601-3.0368-0.97416-1.0764-1.8746-2.7281-2.0011-3.6704-0.12643-0.94229-0.51805-2.6258-0.87028-3.741-0.54533-1.7267-7.4e-4 -2.1986 3.6681-3.1786 6.0942-1.6277 13.221 0.21665 12.285 3.1793-0.35211 1.1148-0.74364 2.798-0.87007 3.7402-0.12642 0.94229-1.03 2.5974-2.0078 3.6779-1.7219 1.9027-1.6821 2.0142 1.2621 3.5368 4.137 2.1393 4.1785 2.113 3.8193-2.4279-0.31061-3.9266-0.25553-4 3.0019-4h3.3183v-8.3641-8.3641l-4.75-1.8505c-2.6125-1.0178-5.121-1.7428-5.5743-1.6111s-0.61439-0.10923-0.35779-0.53535c0.3906-0.64868-26.609-16.608-53.464-31.601l-6.8534-3.8264v2.5954c0 2.2691 0.31432 2.5165 2.5 1.968 1.8905-0.47449 2.5-0.23534 2.5 0.98095 0 1.049-0.86955 1.6084-2.5 1.6084-1.8333 0-2.5 0.53333-2.5 2 0 1.1 0.34937 2 0.77638 2 1.291 0 0.24724 11.313-1.196 12.963-1.837 2.1008-2.8531 5.7502-1.7849 6.4104 0.48222 0.29803 0.67934 2.8109 0.43805 5.5842-0.36625 4.2094-0.16424 5.0423 1.2229 5.0423 0.9139 0 1.3835 0.45 1.0436 1-0.80636 1.3047 2.1569 1.2669 8.5742-0.10933 3.2309-0.69291 5.4078-0.75297 5.7992-0.16 0.39156 0.59324 5.1277 0.46851 12.627-0.33253 6.6-0.70502 12.488-1.308 13.083-1.34 1.4474-0.0777 1.4976 2.097 0.24137 10.442-1.2313 8.1792-2.0582 9.5-5.9471 9.5-2.2109 0-2.8776 0.46336-2.8776 2 0 1.6667 0.66667 2 4 2 3.6 0 4-0.25 4-2.5zm-377.63-14.75c1.4742-1.5018 6.0779-23.141 5.335-25.077-0.42973-1.1199-11.594-4.2444-12.233-3.4234-0.10686 0.13749-0.47203 6.6314-0.81148 14.431-0.56154 12.902-0.46139 14.222 1.111 14.634 3.2808 0.8602 5.3752 0.68089 6.598-0.56488zm307.44-5.9846c1.7638-2.383 3.5503-2.2386 2.9036 0.2346-0.81803 3.1282 1.6376 2.3703 3.1119-0.96039 0.72072-1.6282 1.0952-4.3261 0.83209-5.9954-0.26308-1.6692-0.0496-3.2999 0.47439-3.6238 1.1326-0.69996 0.18083-4.296-1.709-6.4573-1.4433-1.6506-2.487-12.963-1.196-12.963 0.42701 0 0.77638-0.9 0.77638-2 0-1.4667-0.66667-2-2.5-2-1.6304 0-2.5-0.55944-2.5-1.6084 0-1.236 0.60672-1.4561 2.6207-0.95064 2.4538 0.61588 2.5925 0.46544 2.1775-2.3622l-0.44324-3.02 23.577-0.55871-25.094-14.417c-13.801-7.9292-25.711-14.417-26.466-14.417-0.75494 0-1.1485-0.22416-0.8745-0.49814 0.78421-0.78421-4.8617-3.9222-6.185-3.4376-1.6229 0.59429-0.46149 3.2262 2.624 5.9465 1.4096 1.2427 2.0229 2.2736 1.363 2.291-0.90701 0.0239-1.2178 8.2059-1.2737 33.532l-0.0739 33.5h3.5827c1.9705 0 3.3734-0.3375 3.1177-0.75-0.25574-0.4125 1.697-0.59715 4.3393-0.41034 3.8032 0.26888 4.7516 0.68562 4.5514 2-0.57202 3.7554 9.3302 2.8879 12.263-1.0743zm101.16-40.515c0.047-34.031-0.0351-35.503-3.9745-71.183-2.2124-20.038-4.1276-36.517-4.256-36.62s-25.658 16.176-56.733 36.174-56.945 36.365-57.489 36.37c-0.54383 5e-3 11.135 6.954 25.953 15.442 14.818 8.4884 27.301 15.212 27.739 14.941 0.4382-0.27082 0.79673-0.0274 0.79673 0.54093 0 1.2 5.4432 4.2276 6.3732 3.5448 0.34473-0.25307 0.41171-0.17005 0.14885 0.18447-0.72574 0.97884 52.687 31.336 53.911 30.641 0.58657-0.33327 0.7119-0.21669 0.2785 0.25905-0.68385 0.75067 4.5366 4.2977 6.496 4.4137 0.38939 0.0231 0.7296-15.596 0.75602-34.708zm26.096 17.5c0.0328-0.1375 0.4623-7 0.95435-15.25l0.89463-15-17.409-97.756-0.32113 45.378c-0.26196 37.017-3e-3 48.833 1.4063 64.128l1.7274 18.75h6.3437c3.489 0 6.3706-0.1125 6.4034-0.25zm-406.12-59c-0.0349-18.838-0.42995-33.35-0.87799-32.25-0.44803 1.1-6.3183 16.175-13.045 33.5-6.7268 17.325-12.433 31.838-12.681 32.25s5.651 0.75 13.108 0.75h13.559l-0.0634-34.25zm411.64-50.947c1.2926-26.017 2.3664-48.718 2.3863-50.446l0.0362-3.1435-9.75 2.4679c-9.4718 2.3975-14.25 5.0777-14.25 7.9933 0 1.0149 2.4095 1.3257 10.279 1.3257h10.279l-0.18751 3.75c-0.10314 2.0625-0.22869 4.5318-0.27901 5.4874-0.0583 1.1079-2.6276 3.0146-7.0915 5.2626-3.85 1.9388-7.0105 3.857-7.0232 4.2626-0.0566 1.7966 12.562 71.026 12.887 70.704 0.20003-0.19828 1.4212-21.647 2.7138-47.664zm-9.5119-86.553c-1.5863-4.2625-7.4225-19.675-12.969-34.25-5.5468-14.575-10.088-27.314-10.091-28.309-3e-3 -0.99496-0.4555-1.5309-1.0055-1.191-0.63623 0.39321-1 13.51-1 36.059v35.441h13.975 13.975l-2.8842-7.75z" fill="#fff" />
</svg>